<?xml version="1.0" encoding="UTF-8" standalone="no"?>
<svg
   xmlns:dc="http://purl.org/dc/elements/1.1/"
   xmlns:cc="http://creativecommons.org/ns#"
   xmlns:rdf="http://www.w3.org/1999/02/22-rdf-syntax-ns#"
   xmlns:svg="http://www.w3.org/2000/svg"
   xmlns="http://www.w3.org/2000/svg"
   xmlns:sodipodi="http://sodipodi.sourceforge.net/DTD/sodipodi-0.dtd"
   xmlns:inkscape="http://www.inkscape.org/namespaces/inkscape"
   version="1.1"
   x="0px"
   y="0px"
   width="32px"
   height="32px"
   viewBox="0 0 32 32"
   enable-background="new 0 0 32 32"
   xml:space="preserve"
   id="svg2"
   inkscape:version="0.91 r13725"
   sodipodi:docname="recentchanges.svg"><defs
     id="defs3018" /><sodipodi:namedview
     pagecolor="#ffffff"
     bordercolor="#666666"
     borderopacity="1"
     objecttolerance="10"
     gridtolerance="10"
     guidetolerance="10"
     inkscape:pageopacity="0"
     inkscape:pageshadow="2"
     inkscape:window-width="2495"
     inkscape:window-height="1416"
     id="namedview3016"
     showgrid="false"
     inkscape:zoom="29.5"
     inkscape:cx="11.980967"
     inkscape:cy="11.469885"
     inkscape:window-x="1505"
     inkscape:window-y="24"
     inkscape:window-maximized="1"
     inkscape:current-layer="svg2" /><metadata
     id="metadata3006"><rdf:RDF><cc:Work
         rdf:about=""><dc:format>image/svg+xml</dc:format><dc:type
           rdf:resource="http://purl.org/dc/dcmitype/StillImage" /><dc:title>PICOL Icon</dc:title><dc:date>2009-03-15</dc:date><dc:creator><cc:Agent><dc:title>Melih Bilgil</dc:title></cc:Agent></dc:creator><dc:rights><cc:Agent><dc:title>Creative Commons BY-SA</dc:title></cc:Agent></dc:rights><dc:publisher><cc:Agent><dc:title>PICOL - Pictorial Communication Language</dc:title></cc:Agent></dc:publisher><dc:identifier>http://blog.picol.org</dc:identifier><dc:source>http://blog.picol.org</dc:source><dc:language>en</dc:language><dc:subject><rdf:Bag><rdf:li>PICOL</rdf:li><rdf:li>icon</rdf:li><rdf:li>icons</rdf:li><rdf:li>sign</rdf:li><rdf:li>GUI</rdf:li><rdf:li>vector</rdf:li><rdf:li>interface</rdf:li></rdf:Bag></dc:subject><dc:description>This is one icon out of all PICOL icons</dc:description><dc:contributor><cc:Agent><dc:title>Melih Bilgil (www.lonja.de), Christopher Adjei (www.boffer.net)</dc:title></cc:Agent></dc:contributor><cc:license
           rdf:resource="http://creativecommons.org/licenses/by-sa/3.0/" /></cc:Work><cc:License
         rdf:about="http://creativecommons.org/licenses/by-sa/3.0/"><cc:permits
           rdf:resource="http://creativecommons.org/ns#Reproduction" /><cc:permits
           rdf:resource="http://creativecommons.org/ns#Distribution" /><cc:requires
           rdf:resource="http://creativecommons.org/ns#Notice" /><cc:requires
           rdf:resource="http://creativecommons.org/ns#Attribution" /><cc:permits
           rdf:resource="http://creativecommons.org/ns#DerivativeWorks" /><cc:requires
           rdf:resource="http://creativecommons.org/ns#ShareAlike" /></cc:License></rdf:RDF></metadata><g
     id="background"><rect
       fill="none"
       width="32"
       height="32"
       id="rect3009" /></g><path
     id="path3014"
     d="M 10,2 H 2 v 8 h 8 V 2 z M 8,7.999 H 3.999 v -4 H 8 v 4 z M 2,12 v 8 h 8 V 12 H 2 z m 0,18 h 8 V 22 H 2 v 8 z M 21.999,7 c -5.522,0.002 -10,4.48 -10,10.001 0,5.521 4.478,9.997 10,9.999 C 27.521,26.998 32,22.522 32,17.001 32,11.48 27.523,7.001 21.999,7 z m 0,18 c -4.418,-0.01 -7.991,-3.583 -8,-7.999 0.008,-4.418 3.583,-7.993 8,-8.001 4.418,0.008 7.992,3.583 8,8.001 -0.008,4.416 -3.582,7.989 -8,7.999 z M 23,11 h -2 v 7 h 5 v -2 h -3 v -5 z" /><path
     style="fill:#ffffff;fill-opacity:1;fill-rule:nonzero;stroke:none;stroke-width:0.03389831;stroke-linecap:round;stroke-linejoin:round;stroke-miterlimit:4;stroke-dasharray:none;stroke-dashoffset:0;stroke-opacity:1"
     d="m 2.0114754,5.9979113 0,-3.9830508 3.9830509,0 3.9830508,0 0,3.9830508 0,3.9830509 -3.9830508,0 -3.9830509,0 0,-3.9830509 z m 6,0 0,-2.0169491 -2.0169491,0 -2.0169492,0 0,2.0169491 0,2.0169492 2.0169492,0 2.0169491,0 0,-2.0169492 z"
     id="path4204"
     inkscape:connector-curvature="0" /><path
     style="fill:#ffffff;fill-opacity:1;fill-rule:nonzero;stroke:none;stroke-width:0.03389831;stroke-linecap:round;stroke-linejoin:round;stroke-miterlimit:4;stroke-dasharray:none;stroke-dashoffset:0;stroke-opacity:1"
     d="m 2.0114754,15.997911 0,-3.983051 3.9830509,0 3.9830508,0 0,3.983051 0,3.983051 -3.9830508,0 -3.9830509,0 0,-3.983051 z"
     id="path4206"
     inkscape:connector-curvature="0" /><path
     style="fill:#ffffff;fill-opacity:1;fill-rule:nonzero;stroke:none;stroke-width:0.03389831;stroke-linecap:round;stroke-linejoin:round;stroke-miterlimit:4;stroke-dasharray:none;stroke-dashoffset:0;stroke-opacity:1"
     d="m 2.0114754,25.997911 0,-3.983051 3.9830509,0 3.9830508,0 0,3.983051 0,3.983051 -3.9830508,0 -3.9830509,0 0,-3.983051 z"
     id="path4208"
     inkscape:connector-curvature="0" /><path
     style="fill:#ffffff;fill-opacity:1;fill-rule:nonzero;stroke:none;stroke-width:0.03389831;stroke-linecap:round;stroke-linejoin:round;stroke-miterlimit:4;stroke-dasharray:none;stroke-dashoffset:0;stroke-opacity:1"
     d="m 21.367408,26.963243 c -2.497351,-0.164778 -4.782017,-1.222227 -6.525508,-3.020306 -0.728358,-0.751162 -1.248892,-1.474643 -1.713627,-2.381743 -0.562786,-1.098481 -0.902932,-2.208732 -1.055331,-3.444639 -0.05608,-0.45481 -0.0557,-1.773497 6.46e-4,-2.237288 0.251305,-2.068462 1.112616,-3.991057 2.466767,-5.506254 1.658877,-1.8561614 3.872174,-3.0056562 6.335319,-3.2903018 0.574087,-0.066343 1.7007,-0.066159 2.269436,3.696e-4 3.800401,0.4445568 7.008943,3.0163672 8.288487,6.6436442 0.392989,1.114056 0.569943,2.300269 0.533491,3.576271 -0.03161,1.106551 -0.216681,2.090765 -0.583236,3.101695 -1.113539,3.071056 -3.737857,5.45646 -6.880851,6.254429 -1.059502,0.268995 -2.115583,0.371425 -3.135593,0.304123 z m 1.220339,-1.980359 c 0.983473,-0.04785 2.126764,-0.372274 3.104837,-0.881027 0.795937,-0.414014 1.408232,-0.872192 2.051639,-1.535236 1.184881,-1.221043 1.91919,-2.703426 2.188178,-4.417376 0.09276,-0.591033 0.08426,-1.796475 -0.01683,-2.388622 -0.305759,-1.79093 -1.083404,-3.283592 -2.349133,-4.509084 C 26.37821,10.10109 24.980848,9.3924368 23.31656,9.0962743 22.80541,9.0053144 21.68122,8.9705372 21.160188,9.0295662 17.467886,9.447877 14.616842,12.210798 14.057036,15.913166 c -0.08098,0.535564 -0.08098,1.633927 0,2.169491 0.133438,0.882516 0.384403,1.693751 0.756213,2.444428 1.154361,2.330636 3.291097,3.925381 5.859243,4.373026 0.402458,0.07015 1.161571,0.128723 1.423729,0.109852 0.07458,-0.0054 0.295763,-0.01755 0.491526,-0.02708 z"
     id="path4210"
     inkscape:connector-curvature="0" /><path
     style="fill:#ffffff;fill-opacity:1;fill-rule:nonzero;stroke:none;stroke-width:0.03389831;stroke-linecap:round;stroke-linejoin:round;stroke-miterlimit:4;stroke-dasharray:none;stroke-dashoffset:0;stroke-opacity:1"
     d="m 21.028425,14.506386 0,-3.474576 0.98305,0 0.983051,0 0,2.491525 0,2.491525 1.491526,0 1.491525,0 0,0.983051 0,0.983051 -2.474576,0 -2.474576,0 0,-3.474576 z"
     id="path4212"
     inkscape:connector-curvature="0" /></svg>